<?xml version="1.0" encoding="utf-8"?>
<!-- Generator: Adobe Illustrator 18.1.1, SVG Export Plug-In . SVG Version: 6.00 Build 0)  -->
<svg version="1.0" id="Layer_1" xmlns="http://www.w3.org/2000/svg" xmlns:xlink="http://www.w3.org/1999/xlink" x="0px" y="0px"
	 viewBox="0 0 44 88" enable-background="new 0 0 44 88" xml:space="preserve">
<path fill="#FFFFFF" d="M36,54.3L33.7,52c-0.3-0.3-0.7-0.3-0.9,0L22,62.8L11.1,52c-0.3-0.3-0.7-0.3-0.9,0L8,54.3
	c-0.3,0.3-0.3,0.7,0,0.9L18.8,66L8,76.8c-0.3,0.3-0.3,0.7,0,0.9l2.3,2.3c0.3,0.3,0.7,0.3,0.9,0L22,69.2L32.8,80
	c0.3,0.3,0.7,0.3,0.9,0l2.3-2.3c0.3-0.3,0.3-0.7,0-0.9L25.1,66L36,55.2C36.2,54.9,36.2,54.5,36,54.3z"/>
<path fill="#FFFFFF" d="M3.2,28.7h37.5c0.3,0,0.6,0.3,0.6,0.6v3.2c0,0.3-0.3,0.6-0.6,0.6H3.2c-0.3,0-0.6-0.3-0.6-0.6v-3.2
	C2.6,29,2.9,28.7,3.2,28.7z"/>
<path fill="#FFFFFF" d="M3.2,10.8h37.5c0.3,0,0.6,0.3,0.6,0.6v3.2c0,0.3-0.3,0.6-0.6,0.6H3.2c-0.3,0-0.6-0.3-0.6-0.6v-3.2
	C2.6,11.1,2.9,10.8,3.2,10.8z"/>
<path fill="#FFFFFF" d="M3.2,19.8h37.5c0.3,0,0.6,0.3,0.6,0.6v3.2c0,0.3-0.3,0.6-0.6,0.6H3.2c-0.3,0.1-0.6-0.2-0.6-0.5v-3.2
	C2.6,20.1,2.9,19.8,3.2,19.8z"/>
</svg>
