<?xml version="1.0" encoding="utf-8"?>
<!-- Generator: Adobe Illustrator 19.2.0, SVG Export Plug-In . SVG Version: 6.00 Build 0)  -->
<svg version="1.1" id="Layer_1" xmlns="http://www.w3.org/2000/svg" xmlns:xlink="http://www.w3.org/1999/xlink" x="0px" y="0px"
	 viewBox="0 0 802 802" style="enable-background:new 0 0 802 802;" xml:space="preserve">
<metadata><?xpacket begin="﻿" id="W5M0MpCehiHzreSzNTczkc9d"?>
<x:xmpmeta xmlns:x="adobe:ns:meta/" x:xmptk="Adobe XMP Core 5.6-c111 79.158366, 2015/09/25-01:12:00        ">
   <rdf:RDF xmlns:rdf="http://www.w3.org/1999/02/22-rdf-syntax-ns#">
      <rdf:Description rdf:about=""/>
   </rdf:RDF>
</x:xmpmeta>
                                                                                                    
                                                                                                    
                                                                                                    
                                                                                                    
                                                                                                    
                                                                                                    
                                                                                                    
                                                                                                    
                                                                                                    
                                                                                                    
                                                                                                    
                                                                                                    
                                                                                                    
                                                                                                    
                                                                                                    
                                                                                                    
                                                                                                    
                                                                                                    
                                                                                                    
                                                                                                    
                           
<?xpacket end="w"?></metadata>
<style type="text/css">
	.st0{fill:#1A171B;}
	.st1{fill:#FFFFFF;}
</style>
<circle class="st0" cx="401" cy="401" r="401"/>
<g>
	<path class="st1" d="M661.8,125.1c5.5,0,8.9,6.2,5.8,10.8l-159.1,238c-0.3,0.4-0.3,0.9,0,1.3L691,647.4c3,4.5-0.2,10.6-5.7,10.6
		H480.6c-1.9,0-3.6-1-4.5-2.7l-59.3-110.4c-1.3-2.4-2.5-4.8-3.5-7.2c-0.4-0.8,0.2-1.7,1.1-1.7h73.9c0.7,0,1.2-0.5,1.2-1.2v-24.2
		c0-0.7-0.5-1.2-1.2-1.2h-19.5c-24.7,0-28.8-4.5-28.8-26.8V226c0-0.7-0.5-1.2-1.2-1.2h-27.9c-0.9,0-1.4-0.9-1.1-1.7
		c5.9-13.5,40-84.3,45.8-96.3c0.5-1.1,1.6-1.7,2.8-1.7H661.8z"/>
	<path class="st1" d="M391.4,536c-1.9,4.4-4.1,8.8-6.4,13.2l-58.2,106.8c-0.7,1.3-2,2.1-3.5,2.1H115.4c-4.4,0-7-4.9-4.6-8.6
		l180.9-274.8L130,133.7c-2.5-3.7,0.2-8.6,4.6-8.6h205.6c1.5,0,2.8,0.8,3.5,2.1c7.3,14.5,49.3,98.6,52.6,109.9
		c-24.3,24.9-56.2,46-91.8,60.3l0,23.6c22.7-4.5,45.1-11.6,57.7-19.2v183.8c0,19.2-5,23.7-26.3,23.7h-21.7V536H391.4L391.4,536z"/>
</g>
</svg>
