<svg id="Layer_1" data-name="Layer 1" xmlns="http://www.w3.org/2000/svg" viewBox="0 0 566.24 518.2"><title>x1 logo solid yellow</title><path d="M536.73,0a6.75,6.75,0,0,1,5.61,10.5L387.59,242a1.16,1.16,0,0,0,0,1.29L565.11,507.86a6.64,6.64,0,0,1-5.51,10.34h-199a4.92,4.92,0,0,1-4.34-2.59L298.5,408.24q-1.88-3.52-3.44-7a1.17,1.17,0,0,1,1.07-1.63H368a1.16,1.16,0,0,0,1.16-1.16V374.85a1.16,1.16,0,0,0-1.16-1.16H349c-24.05,0-28-4.42-28-26V98.08a1.16,1.16,0,0,0-1.16-1.16H292.72a1.15,1.15,0,0,1-1.07-1.61c5.74-13.16,38.92-82,44.53-93.64A3,3,0,0,1,338.86,0H536.73Z"/><path d="M273.78,399.57c-1.89,4.29-4,8.54-6.21,12.79L210.93,516.2a3.83,3.83,0,0,1-3.36,2H5.39A5.38,5.38,0,0,1,.9,509.87l176-267.26L19.58,8.36A5.37,5.37,0,0,1,24,0H224a3.74,3.74,0,0,1,3.36,2.06c7.06,14.09,48,95.9,51.18,106.87-23.62,24.23-54.65,44.73-89.31,58.68l0,22.93c22.09-4.42,43.85-11.29,56.13-18.65V350.61c0,18.66-4.91,23.07-25.53,23.07H198.75v25.88h75Z"/></svg>