<?xml version="1.0" encoding="utf-8"?>
<!-- Generator: Adobe Illustrator 18.1.1, SVG Export Plug-In . SVG Version: 6.00 Build 0)  -->
<!DOCTYPE svg PUBLIC "-//W3C//DTD SVG 1.0//EN" "http://www.w3.org/TR/2001/REC-SVG-20010904/DTD/svg10.dtd">
<svg version="1.0" id="Layer_1" xmlns="http://www.w3.org/2000/svg" xmlns:xlink="http://www.w3.org/1999/xlink" x="0px" y="0px"
	 viewBox="194.7 284.8 203.8 21.6" enable-background="new 194.7 284.8 203.8 21.6" xml:space="preserve">
<g>
	<path fill="#F7F719" d="M292.6,295.9c0,0-4.7-0.1-10.2,4c0,0-8.3-3.8-17-3.8l-58.6,0.1v-0.8h58.6c8.6,0,16.9-3.9,16.9-3.9
		c5.5,4.1,10.2,4,10.2,4l0,0c0.4-3.2,2.8-3.8,4-3.8c1.2,0,3.6,0.7,4,3.8c0,0,4.7,0.1,10.2-4c0,0,8.2,3.9,16.9,3.9h58.9v0.8
		l-58.9-0.1c-8.6,0-17,3.8-17,3.8c-5.5-4.1-10.2-4-10.2-4c-0.4,3.1-2.7,3.8-3.9,3.8C295.4,299.7,292.9,299.1,292.6,295.9
		L292.6,295.9z"/>
</g>
</svg>
