<?xml version="1.0" encoding="utf-8"?>
<!-- Generator: Adobe Illustrator 18.1.1, SVG Export Plug-In . SVG Version: 6.00 Build 0)  -->
<svg version="1.0" id="Layer_1" xmlns="http://www.w3.org/2000/svg" xmlns:xlink="http://www.w3.org/1999/xlink" x="0px" y="0px"
	 viewBox="0 0 44 88" enable-background="new 0 0 44 88" xml:space="preserve">
<g>
	<path fill="#DD90A5" d="M215.8,328.9c0,0-1,0-2.2,0.9c0,0-1.8-0.8-3.7-0.8l-12.7,0v-0.2H210c1.9,0,3.6-0.8,3.6-0.8
		C214.8,328.8,215.8,328.8,215.8,328.9L215.8,328.9c0.1-0.8,0.6-0.9,0.8-0.9s0.8,0.2,0.9,0.8c0,0,1,0,2.2-0.9c0,0,1.8,0.8,3.6,0.8
		h12.7v0.2l-12.7,0c-1.9,0-3.7,0.8-3.7,0.8c-1.2-0.9-2.2-0.9-2.2-0.9c-0.1,0.7-0.6,0.8-0.8,0.8C216.4,329.7,215.9,329.6,215.8,328.9
		L215.8,328.9z"/>
</g>
</svg>
