<?xml version="1.0" encoding="utf-8"?>
<!-- Generator: Adobe Illustrator 19.2.0, SVG Export Plug-In . SVG Version: 6.00 Build 0)  -->
<svg version="1.1" id="Layer_1" xmlns="http://www.w3.org/2000/svg" xmlns:xlink="http://www.w3.org/1999/xlink" x="0px" y="0px"
	 viewBox="0 0 1000 1000" style="enable-background:new 0 0 1000 1000;" xml:space="preserve">
<metadata><?xpacket begin="﻿" id="W5M0MpCehiHzreSzNTczkc9d"?>
<x:xmpmeta xmlns:x="adobe:ns:meta/" x:xmptk="Adobe XMP Core 5.6-c111 79.158366, 2015/09/25-01:12:00        ">
   <rdf:RDF xmlns:rdf="http://www.w3.org/1999/02/22-rdf-syntax-ns#">
      <rdf:Description rdf:about=""/>
   </rdf:RDF>
</x:xmpmeta>
                                                                                                    
                                                                                                    
                                                                                                    
                                                                                                    
                                                                                                    
                                                                                                    
                                                                                                    
                                                                                                    
                                                                                                    
                                                                                                    
                                                                                                    
                                                                                                    
                                                                                                    
                                                                                                    
                                                                                                    
                                                                                                    
                                                                                                    
                                                                                                    
                                                                                                    
                                                                                                    
                           
<?xpacket end="w"?></metadata>
<style type="text/css">
	.st0{fill:#1A171B;}
</style>
<path class="st0" d="M937.4,53c9.3,0,14.9,10.4,9.7,18.1L680,470.6c-0.5,0.7-0.5,1.6,0,2.2l306.4,456.7c5.1,7.6-0.3,17.8-9.5,17.8
	H633.3c-3.1,0-6-1.7-7.5-4.5l-99.6-185.3c-2.2-4-4.1-8.1-5.9-12.1c-0.6-1.3,0.4-2.8,1.9-2.8h124c1.1,0,2-0.9,2-2V700
	c0-1.1-0.9-2-2-2h-32.7c-41.5,0-48.3-7.6-48.3-44.9V222.3c0-1.1-0.9-2-2-2h-46.9c-1.4,0-2.4-1.5-1.9-2.8
	c9.9-22.7,67.2-141.5,76.9-161.6c0.9-1.8,2.7-2.9,4.6-2.9H937.4z"/>
<path class="st0" d="M483.6,742.7c-3.3,7.4-6.8,14.7-10.7,22.1L375.1,944c-1.2,2.1-3.4,3.4-5.8,3.4h-349c-7.4,0-11.8-8.2-7.8-14.4
	l303.7-461.3L44.8,67.4C40.7,61.3,45.1,53,52.5,53h345.2c2.5,0,4.7,1.4,5.8,3.6c12.2,24.3,82.8,165.5,88.3,184.5
	c-40.8,41.8-94.3,77.2-154.2,101.3l0,39.6c38.1-7.6,75.7-19.5,96.9-32.2v308.5c0,32.2-8.5,39.8-44.1,39.8h-36.4v44.7H483.6
	L483.6,742.7z"/>
</svg>
