<?xml version="1.0" encoding="utf-8"?>
<!-- Generator: Adobe Illustrator 23.0.2, SVG Export Plug-In . SVG Version: 6.00 Build 0)  -->
<svg version="1.1" id="OBJECTS" xmlns="http://www.w3.org/2000/svg" xmlns:xlink="http://www.w3.org/1999/xlink" x="0px" y="0px"
	 viewBox="0 0 31 31" style="enable-background:new 0 0 31 31;" xml:space="preserve">
<metadata><?xpacket begin="﻿" id="W5M0MpCehiHzreSzNTczkc9d"?>
<x:xmpmeta xmlns:x="adobe:ns:meta/" x:xmptk="XMP Core 5.6.0">
   <rdf:RDF xmlns:rdf="http://www.w3.org/1999/02/22-rdf-syntax-ns#">
      <rdf:Description rdf:about=""/>
   </rdf:RDF>
</x:xmpmeta>
                                                                                                    
                                                                                                    
                                                                                                    
                                                                                                    
                                                                                                    
                                                                                                    
                                                                                                    
                                                                                                    
                                                                                                    
                                                                                                    
                                                                                                    
                                                                                                    
                                                                                                    
                                                                                                    
                                                                                                    
                                                                                                    
                                                                                                    
                                                                                                    
                                                                                                    
                                                                                                    
                           
<?xpacket end="w"?></metadata>
<style type="text/css">
	.st0{fill:#FFFFFF;}
</style>
<g>
	<path class="st0" d="M23.7,5.6L23.7,5.6c1,0,1.8,0.8,1.8,1.8s-0.8,1.8-1.8,1.8c-1,0-1.8-0.8-1.8-1.8C21.8,6.4,22.6,5.6,23.7,5.6z"
		/>
	<path class="st0" d="M30.5,7.9c0.2,2.4,0.4,13.7-0.3,16.4c-0.9,3.5-3.2,5.5-6.7,6.1c-1.3,0.2-4.9,0.3-8.4,0.3
		c-3.6,0-7.2-0.1-8.4-0.4c-3.5-0.9-5.5-3.1-6.1-6.6C0.2,21.1,0.1,9.1,0.9,6.5c1-3.4,3.2-5.3,6.6-5.9C9,0.4,12,0.3,15.1,0.3
		c2.9,0,5.7,0.1,7.4,0.2c2.1,0.1,4,0.8,5.5,2.3C29.6,4.1,30.3,5.9,30.5,7.9z M27.6,23.1C28,20.4,28,10.7,27.8,8.2
		c-0.3-2.7-1.9-4.4-4.6-4.9C21.9,3.1,18.7,3,15.6,3c-3,0-6,0.1-7.4,0.2c-2.7,0.3-4.4,2-4.9,4.6C2.9,10.7,3,21.1,3.3,23.2
		c0.3,2.2,1.6,3.7,3.8,4.3c1.2,0.3,4.7,0.4,8.2,0.4c3.2,0,6.3-0.1,7.5-0.2C25.4,27.4,27.2,25.8,27.6,23.1"/>
	<path class="st0" d="M15.5,7.7c4.3,0,7.8,3.5,7.7,7.8c0,4.3-3.5,7.8-7.9,7.8s-7.8-3.5-7.7-7.8C7.7,11.2,11.2,7.7,15.5,7.7z
		 M15.4,20.6c2.8,0,5-2.2,5.1-5c0-2.8-2.2-5.1-5-5.1c0,0,0,0,0,0c-2.8,0-5,2.2-5.1,5C10.4,18.2,12.6,20.5,15.4,20.6
		C15.4,20.6,15.4,20.6,15.4,20.6"/>
</g>
</svg>
