<?xml version="1.0" encoding="utf-8"?>
<!-- Generator: Adobe Illustrator 22.1.0, SVG Export Plug-In . SVG Version: 6.00 Build 0)  -->
<svg version="1.1" xmlns="http://www.w3.org/2000/svg" xmlns:xlink="http://www.w3.org/1999/xlink" x="0px" y="0px"
	 viewBox="0 0 142.3 142.3" style="enable-background:new 0 0 142.3 142.3;" xml:space="preserve">
<metadata><?xpacket begin="﻿" id="W5M0MpCehiHzreSzNTczkc9d"?>
<x:xmpmeta xmlns:x="adobe:ns:meta/" x:xmptk="Adobe XMP Core 5.6-c143 79.161356, 2017/09/07-01:11:22        ">
   <rdf:RDF xmlns:rdf="http://www.w3.org/1999/02/22-rdf-syntax-ns#">
      <rdf:Description rdf:about=""/>
   </rdf:RDF>
</x:xmpmeta>
                                                                                                    
                                                                                                    
                                                                                                    
                                                                                                    
                                                                                                    
                                                                                                    
                                                                                                    
                                                                                                    
                                                                                                    
                                                                                                    
                                                                                                    
                                                                                                    
                                                                                                    
                                                                                                    
                                                                                                    
                                                                                                    
                                                                                                    
                                                                                                    
                                                                                                    
                                                                                                    
                           
<?xpacket end="w"?></metadata>
<style type="text/css">
	.st0{fill:#FFFFFF;}
</style>
<g id="OBJECTS">
</g>
<g id="Layer_1">
	<path class="st0" d="M107.6,26.8c0,0,0.1,0,0.1,0c4.5,0,8.1,3.7,8.1,8.2c0,4.5-3.7,8.2-8.3,8.2c-4.6-0.1-8.1-3.7-8.1-8.2
		C99.5,30.4,103.1,26.8,107.6,26.8z"/>
	<path class="st0" d="M138.4,37.3c1,10.8,1.7,61.6-1.5,73.5c-4.2,15.6-14.4,24.8-30.1,27.3c-5.9,0.9-21.8,1.5-37.7,1.5
		c-16.3,0-32.5-0.6-37.9-2c-15.5-4-24.7-14.1-27.2-29.8c-1.8-11.5-2-65.1,1.3-76.7C9.6,16,19.7,7.1,35,4.5C42,3.4,55.5,3,69.2,3
		C82,3,94.8,3.4,102.6,3.8c9.4,0.5,18,3.5,24.9,10.2C134.2,20.3,137.5,28.3,138.4,37.3z M125.3,105.5c2-12,2-55.8,0.8-67.1
		c-1.2-12-8.6-19.9-20.5-21.8c-5.9-0.9-20-1.3-34.1-1.3c-13.6,0-27.1,0.4-33.1,1C26.5,17.8,18.5,25.1,16.6,37
		c-2,12.6-1.9,59.5-0.5,69c1.5,9.8,7.1,16.6,16.9,19.3c5.3,1.5,21.2,2,36.7,2c14.3,0,28.4-0.5,33.7-1
		C115.4,124.9,123.4,117.5,125.3,105.5"/>
	<path class="st0" d="M71.2,36.3c19.3,0,34.9,15.7,34.7,35.1c-0.1,19.3-15.9,35-35.3,35c-19.4,0-34.9-15.7-34.7-35.1
		C36.1,51.9,51.9,36.2,71.2,36.3z M70.7,94c12.4,0,22.6-10,22.8-22.4c0.2-12.6-9.8-22.8-22.3-22.9c-0.1,0-0.1,0-0.2,0
		c-12.4,0-22.6,10-22.8,22.4C48.1,83.6,58,93.8,70.5,94C70.6,94,70.7,94,70.7,94"/>
</g>
</svg>
