<?xml version="1.0" encoding="utf-8"?>
<!-- Generator: Adobe Illustrator 18.1.1, SVG Export Plug-In . SVG Version: 6.00 Build 0)  -->
<svg version="1.1" id="Layer_1" xmlns="http://www.w3.org/2000/svg" xmlns:xlink="http://www.w3.org/1999/xlink" x="0px" y="0px"
	 viewBox="0 0 500 448.8" enable-background="new 0 0 500 448.8" xml:space="preserve">
<g>
	<path fill="#FCFF42" d="M494.2,448.8H313c-1.9,0-3.7-1.1-4.7-2.8L258.4,353c-1.4-2.5-2.6-5.2-3.7-7.8c-0.7-1.6-0.5-3.5,0.5-5
		c1-1.5,2.6-2.4,4.4-2.4h57.9v-11.3h-11.7c-23,0-28.9-5.6-28.9-27.3V92.8h-20.1c-1.7,0-3.4-0.9-4.4-2.3c-1-1.4-1.2-3.3-0.6-4.9
		c2.6-6.8,37.6-79.2,39.1-82.3c0.9-1.8,2.7-3,4.8-3h179.5c2,0,3.7,1.1,4.7,2.8c0.9,1.7,0.8,3.8-0.3,5.4L344.4,210.6l154.3,230
		c1.1,1.6,1.2,3.7,0.3,5.4C498,447.7,496.2,448.8,494.2,448.8z M316.2,438.2h168.1L333.6,213.5c-1.2-1.8-1.2-4.1,0-5.9L465.2,10.9
		H298.9c-8.9,18.5-26.7,55.4-34,71.3h17.2c2.9,0,5.3,2.4,5.3,5.3v211.9c0,16.2,1.8,16.7,18.4,16.7h17c2.9,0,5.3,2.4,5.3,5.3v21.9
		c0,2.9-2.4,5.3-5.3,5.3H268L316.2,438.2z M188.2,448.8H6.9c-1.9,0-3.7-1.1-4.7-2.8s-0.8-3.8,0.2-5.4l151.4-230L18.2,8.5
		C17.1,6.9,17,4.8,18,3.1s2.7-2.8,4.7-2.8h179.5c2,0,3.8,1.1,4.7,2.9c4.2,8.4,41.5,82.6,44.5,92.9c0.5,1.8,0,3.8-1.3,5.2
		c-19.9,20.4-45.4,37.5-74,49.4l0,9.3c16.5-3.7,31.3-8.9,39.4-13.8c1.6-1,3.7-1,5.3-0.1c1.7,0.9,2.7,2.7,2.7,4.6v151
		c0,18.8-6.5,24.8-26.9,24.8h-12.6v11.3h58.1c1.8,0,3.4,0.9,4.4,2.4c1,1.5,1.1,3.4,0.4,5c-1.6,3.6-3.4,7.4-5.4,11.2L192.8,446
		C191.9,447.7,190.1,448.8,188.2,448.8z M16.7,438.2H185l47.3-86.7c0.5-1,1-2,1.5-3h-55.1c-2.9,0-5.3-2.4-5.3-5.3v-21.9
		c0-2.9,2.4-5.3,5.3-5.3h17.8c14,0,16.3-1,16.3-14.2V159.5c-10.6,4.7-25.2,9.1-41.1,12.3c-1.6,0.3-3.2-0.1-4.4-1.1s-1.9-2.5-1.9-4.1
		l0-19.4c0-2.2,1.3-4.1,3.3-4.9c27.4-11,52-26.9,71.3-46c-5.2-12.7-26.3-55.6-41.3-85.4H32.5l132.1,196.8c1.2,1.8,1.2,4.1,0,5.9
		L16.7,438.2z"/>
</g>
</svg>
